<?xml version="1.0" standalone="no"?>
<!DOCTYPE svg PUBLIC "-//W3C//DTD SVG 20010904//EN"
 "http://www.w3.org/TR/2001/REC-SVG-20010904/DTD/svg10.dtd">
<svg version="1.0" xmlns="http://www.w3.org/2000/svg"
 width="528.000000pt" height="528.000000pt" viewBox="0 0 528.000000 528.000000"
 preserveAspectRatio="xMidYMid meet">
<metadata>
Created by potrace 1.15, written by Peter Selinger 2001-2017
</metadata>
<g transform="translate(0.000000,528.000000) scale(0.100000,-0.100000)"
fill="#000000" stroke="none">
<path d="M2449 5145 c-3 -2 -16 -6 -29 -9 -70 -14 -226 -50 -315 -72 -55 -14
-107 -27 -115 -29 -23 -5 -133 -36 -150 -42 -8 -3 -20 -7 -27 -9 -72 -15 -303
-125 -341 -162 -10 -9 -33 -28 -51 -42 -19 -14 -42 -32 -51 -40 -17 -15 -46
-38 -125 -100 -40 -31 -119 -100 -223 -195 -72 -65 -269 -263 -306 -306 -15
-18 -42 -54 -59 -79 -17 -25 -34 -47 -37 -50 -4 -3 -10 -12 -14 -20 -4 -8 -18
-33 -31 -55 -44 -73 -121 -258 -195 -465 -71 -202 -100 -281 -120 -330 -12
-30 -24 -64 -26 -75 -2 -11 -17 -54 -34 -95 -16 -41 -34 -104 -39 -140 -9 -64
-7 -437 3 -515 3 -22 8 -67 11 -100 4 -33 8 -71 10 -85 3 -14 9 -56 15 -95 11
-70 44 -223 61 -280 34 -115 55 -175 81 -224 37 -69 44 -78 89 -107 21 -13 48
-33 62 -46 13 -13 37 -35 53 -49 16 -14 36 -35 44 -45 8 -11 21 -27 28 -36 7
-9 15 -29 18 -45 5 -27 26 -66 48 -89 6 -6 22 -26 36 -44 14 -19 32 -42 42
-51 9 -10 14 -20 11 -23 -4 -3 -2 -6 3 -6 6 0 28 -24 49 -52 42 -56 56 -74 92
-116 13 -15 23 -30 23 -34 0 -5 4 -8 10 -8 5 0 33 -24 62 -53 29 -29 80 -70
113 -92 33 -22 62 -43 65 -46 7 -9 211 -91 235 -95 11 -1 38 -7 61 -13 44 -11
91 -19 164 -27 25 -2 55 -7 68 -9 26 -6 27 5 11 75 -16 67 -16 69 -24 140 -12
100 -13 241 -3 311 5 35 10 73 12 84 1 11 6 33 10 48 7 22 4 32 -12 47 -11 10
-23 16 -26 13 -3 -4 -6 -1 -6 5 0 7 -7 12 -15 12 -8 0 -15 4 -15 8 0 4 -25 24
-55 43 -30 18 -55 37 -55 42 0 4 -6 7 -14 7 -8 0 -16 4 -18 8 -5 14 -109 68
-187 98 -52 20 -81 38 -100 62 -14 18 -35 43 -46 56 -11 12 -31 37 -45 56 -14
18 -48 63 -77 98 -28 36 -50 69 -47 74 3 4 -2 8 -10 8 -9 0 -16 3 -16 8 0 4
-16 25 -35 47 -55 62 -75 112 -109 270 -28 129 -37 175 -41 218 -3 29 -8 66
-11 82 -10 62 -4 281 11 365 2 14 7 45 10 70 10 71 48 233 78 330 7 19 12 42
13 50 1 8 9 33 18 54 9 21 18 51 21 66 11 60 191 454 216 470 4 3 13 17 18 30
16 38 48 84 84 122 9 10 17 20 17 23 0 18 155 172 193 192 17 8 37 22 45 29 7
8 19 14 26 14 8 0 19 7 26 15 7 8 21 15 31 15 11 0 19 5 19 12 0 6 3 9 6 5 3
-3 33 8 67 24 34 16 70 29 80 29 9 0 17 5 17 12 0 6 3 9 6 5 4 -3 19 0 33 8
26 13 152 56 168 57 5 1 32 9 61 19 28 10 52 16 52 14 0 -2 26 5 58 16 31 11
58 19 60 19 1 -1 26 4 55 9 28 6 63 13 77 16 14 3 36 7 50 10 42 8 83 15 130
21 25 3 56 8 70 11 14 2 97 6 185 8 165 4 254 -6 328 -38 20 -9 37 -14 37 -11
0 3 17 -4 38 -14 20 -11 78 -40 127 -63 50 -24 93 -48 97 -54 5 -7 8 -7 8 0 0
6 3 6 8 0 4 -6 57 -41 117 -79 61 -38 112 -73 113 -77 2 -5 10 -9 17 -9 7 0
15 -3 17 -7 2 -5 26 -24 53 -42 28 -19 52 -38 55 -41 3 -4 20 -15 38 -25 17
-11 32 -23 32 -27 0 -4 5 -8 10 -8 6 0 18 -8 28 -17 35 -34 82 -73 87 -73 3 0
19 -13 35 -30 16 -17 31 -30 34 -30 21 0 340 -328 359 -370 6 -14 12 -74 12
-135 1 -90 7 -125 29 -195 15 -47 29 -92 31 -100 2 -8 4 -15 5 -15 3 0 11 -42
18 -95 5 -35 3 -77 -5 -115 -8 -33 -15 -69 -17 -80 -2 -11 -9 -33 -15 -48 -6
-16 -11 -34 -11 -41 0 -7 34 -26 75 -42 41 -16 75 -32 75 -37 0 -4 5 -5 10 -2
6 3 10 2 10 -4 0 -5 16 -15 35 -21 19 -6 35 -16 35 -21 0 -5 11 -11 25 -15 14
-3 25 -10 25 -16 0 -5 5 -6 10 -3 6 3 10 3 10 -2 0 -4 21 -21 45 -38 25 -16
45 -33 45 -37 0 -5 5 -8 11 -8 6 0 17 -6 24 -12 30 -27 44 -38 50 -38 5 0 46
-36 132 -117 13 -13 25 -23 27 -23 2 0 16 30 31 67 27 67 29 109 9 183 -17 66
-11 263 11 379 3 14 8 42 11 61 3 19 9 55 14 78 9 53 5 142 -10 187 -6 18 -13
43 -15 56 -4 22 -17 77 -20 89 -1 3 -8 26 -15 53 -8 26 -18 47 -22 47 -4 0 -8
6 -8 14 0 8 -40 97 -89 198 -48 101 -94 201 -101 223 -7 22 -17 46 -23 53 -5
6 -6 12 -3 12 9 0 -43 69 -99 135 -11 13 -31 38 -45 56 -14 18 -29 37 -35 43
-5 6 -30 38 -55 71 -44 58 -59 76 -147 173 -24 26 -43 50 -43 55 0 4 -4 7 -9
7 -4 0 -33 24 -63 53 -56 54 -131 121 -165 147 -49 38 -83 60 -92 60 -5 0 -11
4 -13 9 -11 28 -369 203 -443 217 -11 2 -45 10 -75 19 -73 21 -69 20 -190 44
-149 29 -171 32 -295 45 -27 3 -75 8 -105 12 -30 3 -68 7 -85 9 -29 3 -110 12
-170 20 -16 2 -57 6 -90 10 -33 3 -67 8 -75 10 -8 2 -40 7 -70 10 -30 4 -57 8
-61 10 -3 3 -8 3 -10 0z"/>
<path d="M4427 2484 c-1 -1 -22 -5 -46 -9 -44 -6 -121 -33 -163 -57 -79 -44
-198 -167 -198 -205 0 -7 -4 -13 -9 -13 -12 0 -48 -94 -62 -165 -13 -67 -13
-64 -5 -269 7 -171 -2 -238 -45 -343 -51 -126 -74 -158 -199 -283 -80 -79 -94
-92 -168 -145 -102 -72 -360 -219 -379 -215 -23 5 -16 -42 17 -115 21 -44 43
-97 49 -117 7 -21 17 -38 22 -38 5 0 64 18 132 41 67 23 127 42 132 44 6 1 17
5 25 8 8 3 47 17 85 31 376 132 763 340 959 516 79 71 183 177 221 225 65 83
151 242 184 341 32 96 35 113 37 234 2 139 -17 215 -79 305 -39 58 -92 115
-106 115 -4 0 -16 8 -27 18 -33 31 -165 80 -244 90 -67 9 -127 12 -133 6z"/>
<path d="M2428 1305 c-2 -2 -25 -5 -52 -8 -47 -6 -136 -35 -146 -47 -3 -4 -12
-9 -20 -12 -20 -7 -143 -99 -152 -113 -4 -7 -25 -31 -48 -55 -80 -85 -140
-247 -141 -380 -1 -196 110 -409 271 -521 19 -13 37 -26 40 -29 10 -11 87 -41
139 -55 60 -16 197 -13 230 5 12 6 21 8 21 5 0 -7 120 55 136 70 6 5 28 24 50
40 21 17 52 45 68 64 17 19 36 39 41 45 55 61 118 195 131 281 4 28 7 77 7
110 -2 161 -76 326 -192 429 -19 17 -45 41 -57 54 -13 12 -27 22 -33 22 -5 0
-16 6 -23 13 -18 18 -134 66 -172 72 -51 8 -95 12 -98 10z"/>
</g>
</svg>
